<svg width="118" height="30" viewBox="0 0 118 30" fill="none" xmlns="http://www.w3.org/2000/svg">
<path d="M21.1344 0.11113C19.3129 -0.162527 17.3833 1.91404 16.8276 4.77939C16.2718 7.62863 17.2752 10.172 19.0968 10.4618C20.9029 10.7515 22.8479 8.67497 23.4191 5.80962C23.9903 2.96038 22.956 0.416981 21.1344 0.11113ZM10.0971 0.11113C8.26013 0.416981 7.2413 2.96038 7.78159 5.80962C8.36819 8.67497 10.2978 10.7515 12.1193 10.4618C13.9563 10.172 14.9597 7.62863 14.3885 4.77939C13.8328 1.91404 11.9032 -0.162527 10.0971 0.11113ZM29.3931 7.51595C27.6333 6.72718 25.2406 8.15985 23.9903 10.655C22.8171 13.1983 23.2184 15.8705 24.9628 16.6593C26.7071 17.4481 29.0844 16.0315 30.3039 13.5042C31.5234 10.9769 31.0912 8.28863 29.3931 7.51595ZM1.60685 7.51595C-0.091198 8.28863 -0.52343 10.9769 0.696079 13.5042C1.91559 16.0315 4.29286 17.4481 6.03723 16.6593C7.78159 15.8705 8.18294 13.1983 7.00974 10.655C5.75936 8.15985 3.36665 6.72718 1.60685 7.51595ZM4.1848 24.869C4.12306 26.3821 5.23451 28.0563 6.56207 28.6841C9.32527 30.0041 12.5979 27.2675 15.6698 27.2675C18.7417 27.2675 22.0452 30.1168 24.7621 28.6841C26.3058 27.8953 27.3709 25.8026 27.1702 24.0641C26.8924 21.6656 24.1292 20.3778 22.4929 18.6232C20.3163 16.3534 18.7726 12.0876 15.6698 12.0876C12.5824 12.0876 10.9461 16.2891 8.86217 18.6232C7.14868 20.5871 4.29286 22.2451 4.1848 24.869Z" fill="white"/>
<path d="M54.4152 15.3483C54.4152 17.2195 53.9859 18.7271 53.1275 19.871C52.2691 21.0149 51.1068 21.5869 49.6406 21.5869C48.144 21.5869 46.9665 21.1134 46.1081 20.1665V26.0869H44V9.06419H45.9258L46.0283 10.4278C46.8868 9.36722 48.0795 8.83691 49.6064 8.83691C51.0878 8.83691 52.2577 9.39373 53.1161 10.5074C53.9821 11.621 54.4152 13.1702 54.4152 15.1551V15.3483ZM52.3071 15.1096C52.3071 13.7233 52.0108 12.6286 51.4182 11.8256C50.8257 11.0225 50.0128 10.621 48.9797 10.621C47.7034 10.621 46.7462 11.1854 46.1081 12.3142V18.1892C46.7386 19.3104 47.7034 19.871 49.0025 19.871C50.0128 19.871 50.8143 19.4733 51.4068 18.6778C52.007 17.8748 52.3071 16.6854 52.3071 15.1096Z" fill="white"/>
<path d="M62.2208 21.5869C60.5495 21.5869 59.1897 21.0415 58.1414 19.9506C57.093 18.8521 56.5688 17.3862 56.5688 15.5528V15.1665C56.5688 13.9468 56.8005 12.8596 57.2639 11.9051C57.7349 10.943 58.3883 10.193 59.2239 9.6551C60.0671 9.10964 60.9788 8.83691 61.9587 8.83691C63.5616 8.83691 64.8075 9.36343 65.6963 10.4165C66.5852 11.4695 67.0296 12.9771 67.0296 14.9392V15.8142H58.6769C58.7073 17.0263 59.0606 18.0074 59.7367 18.7574C60.4204 19.4998 61.2864 19.871 62.3348 19.871C63.0793 19.871 63.7098 19.7195 64.2264 19.4165C64.7429 19.1134 65.1949 18.7119 65.5824 18.2119L66.87 19.2119C65.8369 20.7952 64.2871 21.5869 62.2208 21.5869ZM61.9587 10.5642C61.1079 10.5642 60.3938 10.8748 59.8164 11.496C59.2391 12.1096 58.882 12.9733 58.7453 14.0869H64.9215V13.9278C64.8607 12.8596 64.572 12.0339 64.0554 11.4506C63.5389 10.8596 62.84 10.5642 61.9587 10.5642Z" fill="white"/>
<path d="M72.3397 6.08691V9.06419H74.6415V10.6892H72.3397V18.3142C72.3397 18.8066 72.4423 19.1778 72.6474 19.4278C72.8525 19.6702 73.2019 19.7915 73.6957 19.7915C73.9388 19.7915 74.2731 19.746 74.6985 19.6551V21.3596C74.1439 21.5112 73.6046 21.5869 73.0804 21.5869C72.1384 21.5869 71.4281 21.3028 70.9495 20.7346C70.4709 20.1665 70.2316 19.3596 70.2316 18.3142V10.6892H67.9868V9.06419H70.2316V6.08691H72.3397Z" fill="white"/>
<path d="M84.2932 18.0983C84.2932 17.5301 84.0767 17.0907 83.6437 16.7801C83.2183 16.4619 82.47 16.1892 81.3988 15.9619C80.3353 15.7346 79.4882 15.4619 78.8577 15.1437C78.2348 14.8256 77.7714 14.4468 77.4675 14.0074C77.1712 13.568 77.0231 13.0452 77.0231 12.4392C77.0231 11.4316 77.4485 10.5793 78.2994 9.88237C79.1578 9.1854 80.2517 8.83691 81.5812 8.83691C82.979 8.83691 84.1109 9.19676 84.9769 9.91646C85.8505 10.6362 86.2873 11.5566 86.2873 12.6778H84.1678C84.1678 12.1021 83.921 11.6059 83.4272 11.1892C82.941 10.7725 82.3256 10.5642 81.5812 10.5642C80.8139 10.5642 80.2137 10.7309 79.7807 11.0642C79.3477 11.3975 79.1312 11.8331 79.1312 12.371C79.1312 12.8786 79.3325 13.2612 79.7351 13.5187C80.1378 13.7763 80.8633 14.0225 81.9116 14.2574C82.9676 14.4922 83.8222 14.7725 84.4755 15.0983C85.1288 15.424 85.6112 15.818 85.9227 16.2801C86.2418 16.7346 86.4013 17.2915 86.4013 17.9506C86.4013 19.049 85.9607 19.9316 85.0795 20.5983C84.1982 21.2574 83.0549 21.5869 81.6495 21.5869C80.6619 21.5869 79.7883 21.4127 79.0286 21.0642C78.269 20.7157 77.6726 20.2309 77.2396 19.6096C76.8142 18.9809 76.6015 18.3028 76.6015 17.5756H78.7096C78.7476 18.2801 79.0286 18.8407 79.5528 19.2574C80.0846 19.6665 80.7835 19.871 81.6495 19.871C82.4472 19.871 83.0853 19.7119 83.5639 19.3937C84.0501 19.068 84.2932 18.6362 84.2932 18.0983Z" fill="white"/>
<path d="M88.5892 15.0983C88.5892 13.8937 88.8247 12.8104 89.2957 11.8483C89.7743 10.8862 90.4352 10.1437 91.2784 9.62101C92.1292 9.09828 93.0978 8.83691 94.1842 8.83691C95.8631 8.83691 97.2191 9.41646 98.2522 10.5756C99.293 11.7346 99.8134 13.2763 99.8134 15.2006V15.3483C99.8134 16.5452 99.5817 17.621 99.1183 18.5756C98.6625 19.5225 98.0053 20.2612 97.1469 20.7915C96.2961 21.3218 95.3161 21.5869 94.207 21.5869C92.5357 21.5869 91.1797 21.0074 90.1389 19.8483C89.1057 18.6892 88.5892 17.1551 88.5892 15.246V15.0983ZM90.7087 15.3483C90.7087 16.7119 91.0239 17.8066 91.6544 18.6324C92.2926 19.4581 93.1434 19.871 94.207 19.871C95.2781 19.871 96.1289 19.4543 96.7595 18.621C97.39 17.7801 97.7053 16.6059 97.7053 15.0983C97.7053 13.7498 97.3824 12.6589 96.7367 11.8256C96.0986 10.9846 95.2477 10.5642 94.1842 10.5642C93.1434 10.5642 92.304 10.9771 91.6658 11.8028C91.0277 12.6286 90.7087 13.8104 90.7087 15.3483Z" fill="white"/>
<path d="M104.451 9.06419L104.52 10.6096C105.462 9.42782 106.692 8.83691 108.212 8.83691C110.817 8.83691 112.132 10.3028 112.154 13.2346V21.3596H110.046V13.2233C110.039 12.3369 109.833 11.6816 109.431 11.2574C109.036 10.8331 108.417 10.621 107.573 10.621C106.89 10.621 106.29 10.8028 105.773 11.1665C105.256 11.5301 104.854 12.0074 104.565 12.5983V21.3596H102.457V9.06419H104.451Z" fill="white"/>
<path d="M115.379 20.2574C115.379 19.8937 115.485 19.5907 115.698 19.3483C115.918 19.1059 116.245 18.9846 116.678 18.9846C117.111 18.9846 117.438 19.1059 117.658 19.3483C117.886 19.5907 118 19.8937 118 20.2574C118 20.6059 117.886 20.8975 117.658 21.1324C117.438 21.3672 117.111 21.4846 116.678 21.4846C116.245 21.4846 115.918 21.3672 115.698 21.1324C115.485 20.8975 115.379 20.6059 115.379 20.2574Z" fill="white"/>
</svg>
