<svg width="92" height="92" viewBox="0 0 92 92" fill="none" xmlns="http://www.w3.org/2000/svg">
<rect width="92" height="92" rx="46" fill="#4EC690"/>
<path d="M31.1305 68.5545C31.1305 69.6839 30.8693 70.5938 30.3471 71.2842C29.8248 71.9746 29.1177 72.3198 28.2257 72.3198C27.3152 72.3198 26.5988 72.034 26.0765 71.4625V75.0358H24.7939V64.7618H25.9656L26.028 65.5848C26.5502 64.9447 27.2759 64.6246 28.2049 64.6246C29.1061 64.6246 29.8179 64.9607 30.3401 65.6328C30.867 66.3049 31.1305 67.24 31.1305 68.4379V68.5545ZM29.8479 68.4105C29.8479 67.5737 29.6677 66.913 29.3072 66.4284C28.9467 65.9437 28.4521 65.7014 27.8236 65.7014C27.0471 65.7014 26.4647 66.042 26.0765 66.7233V70.2691C26.4601 70.9458 27.0471 71.2842 27.8374 71.2842C28.4521 71.2842 28.9397 71.0441 29.3002 70.564C29.6654 70.0794 29.8479 69.3615 29.8479 68.4105Z" fill="white"/>
<path d="M35.8794 72.3198C34.8626 72.3198 34.0353 71.9906 33.3975 71.3322C32.7597 70.6692 32.4408 69.7845 32.4408 68.678V68.4448C32.4408 67.7086 32.5817 67.0525 32.8637 66.4764C33.1502 65.8957 33.5477 65.443 34.0561 65.1184C34.5691 64.7892 35.1237 64.6246 35.72 64.6246C36.6952 64.6246 37.4531 64.9424 37.9939 65.5779C38.5347 66.2135 38.805 67.1234 38.805 68.3076V68.8357H33.7233C33.7418 69.5673 33.9567 70.1594 34.3681 70.6121C34.784 71.0601 35.3109 71.2842 35.9487 71.2842C36.4017 71.2842 36.7853 71.1927 37.0996 71.0098C37.4139 70.827 37.6889 70.5846 37.9246 70.2828L38.708 70.8864C38.0794 71.842 37.1365 72.3198 35.8794 72.3198ZM35.72 65.6671C35.2023 65.6671 34.7679 65.8546 34.4166 66.2295C34.0653 66.5998 33.8481 67.1211 33.7649 67.7932H37.5225V67.6972C37.4855 67.0525 37.3099 66.5541 36.9956 66.202C36.6813 65.8454 36.2561 65.6671 35.72 65.6671Z" fill="white"/>
<path d="M42.0357 62.9648V64.7618H43.4361V65.7425H42.0357V70.3446C42.0357 70.6418 42.0981 70.8658 42.2229 71.0167C42.3477 71.163 42.5603 71.2362 42.8607 71.2362C43.0086 71.2362 43.2119 71.2087 43.4708 71.1539V72.1826C43.1334 72.2741 42.8052 72.3198 42.4863 72.3198C41.9132 72.3198 41.4811 72.1484 41.1899 71.8054C40.8987 71.4625 40.7531 70.9756 40.7531 70.3446V65.7425H39.3874V64.7618H40.7531V62.9648H42.0357Z" fill="white"/>
<path d="M49.3081 70.2143C49.3081 69.8713 49.1764 69.6061 48.913 69.4187C48.6542 69.2266 48.1989 69.062 47.5472 68.9249C46.9002 68.7877 46.3848 68.6231 46.0012 68.4311C45.6222 68.239 45.3403 68.0104 45.1554 67.7452C44.9752 67.48 44.8851 67.1645 44.8851 66.7987C44.8851 66.1906 45.1439 65.6762 45.6615 65.2556C46.1838 64.8349 46.8493 64.6246 47.6582 64.6246C48.5086 64.6246 49.1972 64.8418 49.7241 65.2762C50.2556 65.7105 50.5214 66.2661 50.5214 66.9428H49.2319C49.2319 66.5953 49.0817 66.2958 48.7813 66.0443C48.4855 65.7928 48.1111 65.6671 47.6582 65.6671C47.1913 65.6671 46.8262 65.7677 46.5628 65.9689C46.2993 66.17 46.1676 66.433 46.1676 66.7576C46.1676 67.0639 46.2901 67.2948 46.535 67.4503C46.78 67.6058 47.2214 67.7544 47.8592 67.8961C48.5016 68.0378 49.0216 68.207 49.4191 68.4036C49.8165 68.6002 50.11 68.838 50.2995 69.1169C50.4936 69.3912 50.5907 69.7273 50.5907 70.1251C50.5907 70.7881 50.3226 71.3208 49.7865 71.7231C49.2504 72.1209 48.5548 72.3198 47.6997 72.3198C47.0989 72.3198 46.5674 72.2147 46.1052 72.0043C45.643 71.794 45.2802 71.5014 45.0168 71.1264C44.758 70.7469 44.6285 70.3377 44.6285 69.8988H45.9111C45.9342 70.324 46.1052 70.6624 46.4241 70.9138C46.7477 71.1607 47.1729 71.2842 47.6997 71.2842C48.185 71.2842 48.5733 71.1882 48.8645 70.9961C49.1602 70.7995 49.3081 70.5389 49.3081 70.2143Z" fill="white"/>
<path d="M51.9218 68.4036C51.9218 67.6766 52.0651 67.0228 52.3516 66.4421C52.6428 65.8614 53.0449 65.4133 53.5579 65.0978C54.0756 64.7823 54.6649 64.6246 55.3258 64.6246C56.3472 64.6246 57.1722 64.9744 57.8008 65.6739C58.434 66.3735 58.7505 67.304 58.7505 68.4653V68.5545C58.7505 69.2769 58.6096 69.9262 58.3277 70.5023C58.0503 71.0739 57.6506 71.5197 57.1283 71.8397C56.6106 72.1598 56.0144 72.3198 55.3396 72.3198C54.3228 72.3198 53.4978 71.97 52.8646 71.2705C52.2361 70.5709 51.9218 69.645 51.9218 68.4928V68.4036ZM53.2113 68.5545C53.2113 69.3775 53.4031 70.0382 53.7867 70.5366C54.1749 71.035 54.6926 71.2842 55.3396 71.2842C55.9913 71.2842 56.509 71.0327 56.8926 70.5298C57.2762 70.0222 57.468 69.3135 57.468 68.4036C57.468 67.5897 57.2716 66.9313 56.8787 66.4284C56.4905 65.9209 55.9728 65.6671 55.3258 65.6671C54.6926 65.6671 54.1819 65.9163 53.7936 66.4147C53.4054 66.913 53.2113 67.6263 53.2113 68.5545Z" fill="white"/>
<path d="M61.5722 64.7618L61.6138 65.6945C62.1869 64.9812 62.9356 64.6246 63.86 64.6246C65.4453 64.6246 66.2449 65.5093 66.2587 67.2788V72.1826H64.9762V67.272C64.9715 66.737 64.8467 66.3415 64.6018 66.0855C64.3615 65.8294 63.9848 65.7014 63.4718 65.7014C63.0558 65.7014 62.6907 65.8111 62.3764 66.0306C62.0621 66.2501 61.8171 66.5381 61.6415 66.8948V72.1826H60.3589V64.7618H61.5722Z" fill="white"/>
<path d="M68.2207 71.5174C68.2207 71.2979 68.2854 71.115 68.4148 70.9687C68.5488 70.8224 68.7476 70.7492 69.011 70.7492C69.2745 70.7492 69.4732 70.8224 69.6072 70.9687C69.7459 71.115 69.8152 71.2979 69.8152 71.5174C69.8152 71.7277 69.7459 71.9037 69.6072 72.0455C69.4732 72.1872 69.2745 72.2581 69.011 72.2581C68.7476 72.2581 68.5488 72.1872 68.4148 72.0455C68.2854 71.9037 68.2207 71.7277 68.2207 71.5174Z" fill="white"/>
<path d="M54.5386 15.0423C51.7781 14.642 48.8539 17.6789 48.0117 21.8694C47.1696 26.0363 48.6902 29.7559 51.4506 30.1797C54.1877 30.6034 57.1353 27.5665 58.0008 23.3761C58.8664 19.2092 57.299 15.4895 54.5386 15.0423ZM37.8121 15.0423C35.0283 15.4895 33.4843 19.2092 34.3031 23.3761C35.192 27.5665 38.1162 30.6034 40.8767 30.1797C43.6605 29.7559 45.1811 26.0363 44.3156 21.8694C43.4734 17.6789 40.5492 14.642 37.8121 15.0423ZM67.0542 25.8715C64.3873 24.718 60.7613 26.8132 58.8664 30.4622C57.0885 34.1818 57.6967 38.0897 60.3402 39.2433C62.9837 40.3968 66.5863 38.3252 68.4344 34.6291C70.2825 30.933 69.6275 27.0015 67.0542 25.8715ZM24.9456 25.8715C22.3723 27.0015 21.7173 30.933 23.5654 34.6291C25.4135 38.3252 29.0161 40.3968 31.6596 39.2433C34.3031 38.0897 34.9113 34.1818 33.1334 30.4622C31.2385 26.8132 27.6125 24.718 24.9456 25.8715ZM28.8524 51.2496C28.7588 53.4626 30.4431 55.9109 32.455 56.8291C36.6424 58.7595 41.6019 54.7574 46.2572 54.7574C50.9126 54.7574 55.9188 58.9243 60.0361 56.8291C62.3754 55.6755 63.9896 52.6151 63.6855 50.0725C63.2644 46.5648 59.0769 44.6815 56.5972 42.1154C53.2987 38.796 50.9593 32.5574 46.2572 32.5574C41.5785 32.5574 39.0988 38.7018 35.9406 42.1154C33.3439 44.9875 29.0161 47.4123 28.8524 51.2496Z" fill="white"/>
</svg>
